<?xml version="1.0" encoding="utf-8"?>
<!-- Generator: Adobe Illustrator 20.1.0, SVG Export Plug-In . SVG Version: 6.00 Build 0)  -->
<!DOCTYPE svg PUBLIC "-//W3C//DTD SVG 1.1//EN" "http://www.w3.org/Graphics/SVG/1.1/DTD/svg11.dtd">
<svg version="1.1" id="Layer_2" xmlns="http://www.w3.org/2000/svg" xmlns:xlink="http://www.w3.org/1999/xlink" x="0px" y="0px"
	 viewBox="0 0 19 19" style="enable-background:new 0 0 19 19;" xml:space="preserve">
<style type="text/css">
	.st0{fill:#FFFFFF;}
</style>
<g>
	<path class="st0" d="M9.5,0C4.4,0,0.2,4.2,0.2,9.3s4.2,9.3,9.3,9.3c5.1,0,9.3-4.2,9.3-9.3S14.6,0,9.5,0z M14.7,12.9
		c0,0.5-0.4,0.9-0.9,0.9H5.2c-0.5,0-0.9-0.4-0.9-0.9v-2.8h3.9V11c0,0.2,0.2,0.4,0.4,0.4h1.9c0.2,0,0.4-0.2,0.4-0.4v-0.9h3.9V12.9z
		 M8.8,10.8v-0.7h1.5v0.7H8.8z M14.7,9.5H4.3V7.3c0-0.5,0.4-0.9,0.9-0.9h2.1V5.4c0-0.3,0.3-0.6,0.6-0.6h3.4c0.3,0,0.6,0.3,0.6,0.6
		v0.9h2.1c0.5,0,0.9,0.4,0.9,0.9V9.5z"/>
	<rect x="8" y="5.6" class="st0" width="3" height="0.7"/>
</g>
</svg>
