<?xml version="1.0" encoding="utf-8"?>
<!-- Generator: Adobe Illustrator 20.1.0, SVG Export Plug-In . SVG Version: 6.00 Build 0)  -->
<!DOCTYPE svg PUBLIC "-//W3C//DTD SVG 1.1//EN" "http://www.w3.org/Graphics/SVG/1.1/DTD/svg11.dtd">
<svg version="1.1" id="Layer_1" xmlns="http://www.w3.org/2000/svg" xmlns:xlink="http://www.w3.org/1999/xlink" x="0px" y="0px"
	 viewBox="0 0 24 28" enable-background="new 0 0 24 28" xml:space="preserve">
<g>
	<path fill="#66C8ED" d="M11.3,23.8c0-0.1,0.1-0.2,0.2-0.1c0.1,0.1,0,0.2,0.2,0.2c0.1,0,0.4,0,0.4,0c0-0.1,0.2-0.1,0.2-0.2
		c0-0.1,0-2.1,0-2.2c0-0.1,0.3,0,0.3-0.1c0-0.1,0-1.1,0-1.1s0.2,0,0.3,0c0.1,0,0.3-0.1,0.4-0.1c0.1,0,0.1,0.2,0.2,0.1
		c0,0,0.1-0.1,0.2-0.1c0.1,0,0.1,0,0.2,0c0,0,0-0.1,0-0.1c0-0.1-0.6,0-0.7,0c-0.1,0-0.4,0.1-0.5,0c-0.1-0.1-0.7,0-0.7,0l-0.1-0.1
		c0,0-1,0-1.2,0c-0.1,0-0.2,0-0.3-0.1c-0.1-0.1-0.2-0.1-0.3,0c-0.1,0.1-0.1-0.1-0.2-0.1c-0.1,0-0.1,0.1-0.1,0.1l-0.1,0
		c0,0.1,0.1,0.3,0.2,0.4c0.1,0.2,0.3,0.4,0.3,0.7c0.1,0.2,0.3,0.5,0.3,0.7c0.1,0.2,0,0.4,0,0.6c0.1,0.1,0.1,0.3,0.1,0.5
		c0,0.2,0,0.6,0.2,0.8c0.1,0.1,0.1,0.2,0.2,0.3C11.2,23.8,11.3,23.8,11.3,23.8z"/>
	<path fill="#66C8ED" d="M15.7,19.3l0-0.1l-0.3,0c-0.2,0-0.2,0.1-0.2,0.2c0,0.1-0.2,0.2-0.3,0.2c-0.1,0-0.3,0.3-0.3,0.4
		c-0.1,0-0.3-0.1-0.4-0.1c0,0-0.1,0-0.2,0c0,0.1,0.2,0.2,0.2,0.2c0.1,0,0.1,0.4,0.2,0.4c0.1,0.1,0.3,0.2,0.3,0.2
		c0,0.1,0.1,0.2,0.1,0.3c0,0.1,0.1,0.2,0.2,0.2c0.2,0,0.2,0.1,0.2,0.1c0,0.1,0.3,0,0.3,0.1c0,0.1,0.3,0,0.4,0.1
		c0.1-0.1,0.3-0.3,0.3-0.3c0.1-0.1,0-0.3,0.1-0.3c0.1,0,0.2-0.2,0.2-0.3c-0.1,0,0-0.2-0.1-0.3c-0.1-0.1,0.1-0.1,0.1-0.3
		c0-0.2,0-0.5,0-0.5c0,0-0.3,0-0.4-0.1C16,19.3,15.7,19.3,15.7,19.3z"/>
	<path fill="#66C8ED" d="M15,21.3c-0.1,0-0.2-0.1-0.2-0.2c0-0.1-0.1-0.2-0.1-0.3c0-0.1-0.2-0.2-0.3-0.2c-0.1-0.1-0.1-0.4-0.2-0.4
		c0,0-0.1-0.1-0.2-0.2c-0.1,0-0.2,0-0.2,0c-0.1,0-0.2,0.1-0.2,0.1c0,0-0.1-0.1-0.2-0.1c-0.1,0-0.3,0.1-0.4,0.1c-0.1,0-0.3,0-0.3,0
		s0,1,0,1.1c0,0.1-0.3,0-0.3,0.1c0,0,0,0.5,0,1c0.1,0,0.1,0.1,0.2,0.1c0,0.1,0.1,0.3,0.1,0.4c0,0.1-0.1,0-0.1,0.1
		c0,0.1,0,0.1,0.1,0.1c0.1,0,0.3,0.1,0.3,0c0.1-0.1,0.3-0.3,0.3-0.3c0-0.1,0.1-0.3,0.2-0.2c0.2,0.1,0.2,0.1,0.4,0.1
		c0.2,0,0.3,0,0.3-0.1c0-0.1,0-0.2,0.1-0.2c0.1,0,0.3-0.1,0.3-0.2c0-0.1,0.1-0.2,0.1-0.2c0.1,0,0.2-0.1,0.3-0.2
		c0-0.1,0.2-0.1,0.2-0.1c0,0,0.1-0.1,0.1-0.2l0,0C15.3,21.4,15.2,21.3,15,21.3z"/>
	<path fill="#66C8ED" d="M16,22.8c-0.1,0-0.2,0.2-0.2,0.2c0,0,0.1,0.3,0.2,0.3c0.1,0,0.2,0,0.2-0.1c0,0,0-0.1,0.1-0.1
		c0-0.1,0-0.2,0-0.3C16.1,22.8,16.1,22.8,16,22.8z"/>
	<path fill="#66C8ED" d="M15.1,23.8c0-0.1-0.3,0.1-0.3,0.1c0,0.1-0.2,0.3-0.2,0.3l0.2,0.3l0.1,0c0,0,0-0.1,0.1-0.2
		c0-0.1,0.2,0,0.2-0.1c0-0.1,0.1-0.2,0.1-0.2C15.3,24,15.1,23.9,15.1,23.8z"/>
	<path fill="#66C8ED" d="M16.2,23.2C16.2,23.2,16.2,23.2,16.2,23.2C16.2,23.2,16.2,23.2,16.2,23.2c-0.1,0.1-0.1,0.1-0.2,0.1
		c-0.1,0-0.2-0.3-0.2-0.3c0,0,0.1-0.2,0.2-0.2c0.1,0,0.1,0.1,0.2,0.1c0,0,0-0.1,0-0.1c0,0,0.1-0.6,0-0.6c-0.1-0.1-0.2-0.6-0.2-0.6
		c0-0.1-0.4,0-0.4-0.1c0-0.1-0.3,0-0.3-0.1c0,0.1-0.1,0.1-0.1,0.2c0,0.1-0.2,0-0.2,0.1c0,0.1-0.2,0.2-0.3,0.2
		c-0.1,0-0.1,0.1-0.1,0.2c0,0.1-0.2,0.2-0.3,0.2c-0.1,0-0.1,0.1-0.1,0.2c0,0.1-0.1,0.1-0.3,0.1c-0.2,0-0.2,0-0.4-0.1
		c-0.2-0.1-0.2,0.1-0.2,0.2c0,0.1-0.2,0.3-0.3,0.3c-0.1,0.1-0.2,0-0.3,0c-0.1,0-0.1-0.1-0.1-0.1c0-0.1,0,0,0.1-0.1
		c0-0.1-0.1-0.3-0.1-0.4c0,0-0.1-0.1-0.2-0.1c0,0.6,0,1.2,0,1.2c0,0.1-0.2,0.2-0.2,0.2c0,0.1-0.3,0-0.4,0c-0.1,0-0.1-0.1-0.2-0.2
		c-0.1-0.1-0.2,0-0.2,0.1c0,0.1-0.1,0-0.1,0c0.1,0.2,0.2,0.4,0.3,0.5c0.1,0.3,0.3,0.5,0.3,0.7c0,0.2,0.1,0.3,0,0.3
		c-0.1,0-0.1,0.1,0,0.3c0.1,0.2,0,0.3,0.1,0.3c0.1,0,0.1,0.1,0.1,0.1c0.1,0,0.1,0.1,0.2,0.1c0,0.1,0.2,0.1,0.2,0
		c0.1-0.1,0.2-0.1,0.4-0.1c0.2,0,0.1-0.1,0.3-0.1c0.2,0,0.4-0.1,0.5,0c0.1,0,0.3,0,0.3,0c0.1,0,0.2,0.1,0.2,0c0-0.1,0.1-0.1,0.3-0.1
		s0.4-0.2,0.7-0.4c0.2-0.2,0.7-0.7,0.8-1c0.1-0.2,0.4-0.4,0.5-0.5c0.1-0.1,0.1-0.4,0.2-0.6C16.4,23.2,16.2,23.2,16.2,23.2z
		 M15.2,24.3c0,0.1-0.2,0-0.2,0.1c0,0.1-0.1,0.2-0.1,0.2l-0.1,0l-0.2-0.3c0,0,0.2-0.2,0.2-0.3c0-0.1,0.3-0.2,0.3-0.1
		c0,0.1,0.2,0.2,0.2,0.3C15.3,24.1,15.2,24.2,15.2,24.3z"/>
	<path fill="#66C8ED" d="M9.9,19.7c0.1,0,0,0.1,0.2,0.1c0.1,0,0.2,0,0.3,0c0.1,0.1,0.2,0.1,0.3,0.1c0.1,0,1.2,0,1.2,0l0.1,0.1
		c0,0,0.6-0.1,0.7,0c0.1,0.1,0.4,0,0.5,0c0,0,0.1,0,0.1,0l-0.4-0.5l0-1.1l0.5,0l0.1-0.1l0.1-0.7c0,0-0.1,0-0.1,0c-0.1,0-0.2,0-0.3,0
		c-0.1,0-0.1,0.1-0.2,0.1c-0.1,0,0-0.2,0-0.3c0-0.1-0.1-0.2-0.2-0.3c-0.1-0.1,0.1-0.4,0-0.5c0,0-0.1-0.2-0.1-0.3c0-0.1-0.1,0-0.2,0
		s-0.2-0.1-0.2-0.1s-0.2,0-0.3,0c-0.1,0-0.1,0.3-0.1,0.3c-0.1,0-0.2,0-0.4,0.1c-0.1,0-0.2,0-0.3-0.2c-0.1-0.2-0.2-0.1-0.1-0.3
		c0-0.1-0.1-0.3-0.1-0.3s-1,0-1.1,0c0,0-0.1,0.1-0.2,0.1c0.1,0.2,0.3,0.6,0.3,0.7c0,0.1-0.1,0.2-0.1,0.4c0,0.2,0.2,0.5,0.2,0.7
		c0,0.2-0.1,0.3-0.2,0.5c-0.1,0.1-0.2,0.5-0.2,0.6c0,0.2-0.2,0.4-0.2,0.5c0,0.1,0,0.4,0,0.5c0,0,0,0,0,0l0.1,0
		C9.8,19.8,9.8,19.7,9.9,19.7z"/>
	<path fill="#66C8ED" d="M15.9,16.8c0,0-0.2-0.1-0.2-0.1c-0.1,0.1-0.3,0.1-0.4,0.1c-0.1,0,0,0.2-0.1,0.2c-0.1,0.1-0.1,0.1,0,0.2
		c0.1,0,0,0.3,0,0.4c0,0.1-0.1,0.3-0.1,0.3c0,0,0.1,0.2,0.2,0.3c0.1,0,0.2-0.1,0.2-0.1c0,0,0,0.1,0,0.2c0,0.1-0.1,0.1-0.1,0.1
		s-0.2,0.1-0.2,0c-0.1-0.1-0.1-0.2-0.1-0.3c0-0.1-0.2-0.1-0.3-0.1c-0.1,0-0.1-0.1-0.2-0.2c0-0.1-0.1,0-0.1,0.1c0,0-0.1,0-0.1,0
		c-0.1,0-0.2-0.1-0.3-0.1c-0.1,0-0.1-0.1-0.1-0.2c0-0.1-0.1,0-0.2,0c-0.1,0-0.1-0.1-0.1-0.1s0-0.1-0.1-0.1l-0.1,0.7l-0.1,0.1l-0.5,0
		l0,1.1l0.4,0.5c0.2,0,0.6-0.1,0.6,0c0,0,0,0,0,0.1c0.1,0,0.1,0,0.2,0c0.1,0,0.3,0.1,0.4,0.1c0.1,0,0.2-0.3,0.3-0.4
		c0.1,0,0.3-0.2,0.3-0.2c0-0.1,0-0.1,0.2-0.2l0.3,0l0,0L15.6,19c0,0,0.9-0.3,0.9-0.3c0-0.1-0.1-0.1-0.1-0.1c0,0,0.1-0.3,0.1-0.3
		c0-0.1,0.2,0,0.1-0.1c-0.1-0.1-0.1-0.5,0-0.5c0-0.1,0.1,0,0.1-0.1c0-0.1-0.1-0.3-0.2-0.4c0,0-0.3-0.2-0.4-0.2
		C16.1,16.9,16,16.8,15.9,16.8z"/>
	<path fill="#66C8ED" d="M15.7,14.2c-0.1,0-0.2,0-0.2,0.1c0,0-0.1,0-0.2,0c0,0,0,0,0,0c-0.1,0-0.1,0.2-0.1,0.2s-0.1,0-0.1,0.1
		c0,0.1,0,0.1,0.1,0.1c0,0,0.1,0,0.1,0c0.2,0,0.2-0.1,0.2-0.1s0.3,0,0.3-0.1c0-0.1-0.1-0.2-0.1-0.2L15.7,14.2z"/>
	<path fill="#66C8ED" d="M20.1,10.6c0.1,0,0.2,0.2,0.2,0.2c0.1,0,0.4,0.1,0.7,0.2c0.2,0.1,0.4,0.1,0.5,0.1c0.1,0,0.2,0,0.1,0.1
		c-0.1,0.1-0.8,0.8-0.9,0.9c-0.1,0.1-0.2,0.1-0.4,0.1c-0.2,0-0.4,0.2-0.4,0.2c0,0-0.2,0-0.3,0l-0.2,0.2l-0.2,0.2l0,1.2l0.2,0.3
		c0.1-0.2,0.5-0.5,0.7-0.8c0.3-0.3,0.4-0.4,0.6-0.4c0.2-0.1,0.6-0.5,0.8-0.8c0.2-0.2,0.4-0.5,0.4-0.6c0-0.2,0.2-0.4,0.3-0.5
		c0.1-0.2,0.3-0.5,0.3-0.7c0-0.1,0.1-0.4,0.1-0.6c0-0.2-0.2-0.2-0.2-0.1C22.4,10,22,10,21.7,10.1c-0.3,0-0.4,0-0.5,0.1
		c-0.1,0.1-0.3,0-0.4,0.1c-0.1,0.1-0.4,0.2-0.6,0c0-0.1-0.1-0.2-0.2-0.2c-0.1,0.1-0.2,0.2-0.2,0.3C19.9,10.4,20,10.6,20.1,10.6z"/>
	<path fill="#66C8ED" d="M2.8,4.4c0-0.2,0-0.4,0-0.5c0,0,0.5-0.3,0.5-0.3c0.1,0,0.2,0,0.2-0.1c0-0.1,0.2,0,0.3-0.1
		C4,3.5,4,3.4,4,3.3c0-0.1,0.2-0.1,0.3-0.1c0.1,0,0.1-0.1,0.2-0.1c0.1,0,0-0.1,0-0.2c0-0.1,0-0.1,0.1-0.1c0.1,0,0.2-0.1,0.2-0.1
		c0-0.1,0.4,0,0.5,0c0.1,0,0.1-0.1,0.1-0.1c0-0.1-0.1-0.2-0.1-0.2c-0.1,0,0-0.2,0-0.3c0-0.1,0-0.3-0.1-0.3c0,0,0-0.1-0.1-0.1
		c-0.1,0-0.3-0.1-0.4-0.1c-0.2,0-0.4,0.1-0.6-0.1C4,1.2,3.9,1.2,3.8,1.2c-0.1,0-0.3,0.5-0.4,0.7C3.3,2.1,3,2.2,2.9,2.2
		c-0.1,0-0.1,0.2-0.3,0.3C2.6,2.5,2.6,2.7,2.5,2.8c-0.1,0.1-0.1,0.4,0,0.5c0.1,0.1-0.2,0.5-0.4,0.6C1.9,3.9,1.8,4.1,1.6,4.2
		c-0.1,0-0.2,0.1-0.2,0.1c0.4,0,1,0,1.2,0C2.8,4.3,2.8,4.3,2.8,4.4z"/>
	<path fill="#66C8ED" d="M8.6,1.3c0.1,0.1,0,0.3-0.1,0.4c-0.1,0-0.1,0.2-0.2,0.2c-0.1,0,0,0.3,0.1,0.4c0.1,0.1,0.1,0.2,0.1,0.2
		c0,0.1,0.2,0.1,0.3,0.2C8.9,2.7,9,3.1,9,3.3c0,0,0,0.1,0,0.1c0.1,0,0.1-0.1,0.1-0.1C9.2,3.1,9.2,3,9.2,3c0,0,0-0.1,0-0.1
		c0,0,0.2-0.2,0.3-0.2c0,0,0.1,0,0.1-0.1c0,0,0-0.1,0-0.2C9.6,2.2,9.5,2.2,9.5,2.1C9.5,2.1,9.4,2,9.4,2c0,0.1-0.2,0-0.3-0.1
		c0-0.1,0.1-0.1,0.3-0.2c0.1-0.1,0.2-0.3,0-0.5C9.2,1.1,9.3,1,9.5,0.9c0.1-0.1,0-0.2,0-0.1c-0.1,0-0.1,0.1-0.2-0.1
		c0-0.1-0.3-0.1-0.5,0c0,0-0.1,0.1-0.2,0.1C8.6,1,8.6,1.2,8.6,1.3z"/>
	<path fill="#66C8ED" d="M5.2,2c0,0.1,0,0.3,0,0.3c0.1,0,0.1,0.2,0.1,0.2c0,0.1,0,0.1-0.1,0.1c-0.1,0-0.5,0-0.5,0
		c0,0.1-0.1,0.1-0.2,0.1c-0.1,0-0.1,0-0.1,0.1c0,0.1,0,0.2,0,0.2c-0.1,0-0.1,0.1-0.2,0.1C4.2,3.2,4,3.2,4,3.3C4,3.4,4,3.5,3.9,3.5
		c-0.1,0-0.3,0-0.3,0.1c0,0.1-0.1,0-0.2,0.1C3.3,3.6,2.8,3.9,2.8,4c0,0,0,0.2,0,0.5c0,0,0,0,0.1,0.1C3.1,4.6,6,6.5,6.1,6.6
		c0.1,0.1,0.2,0.3,0.2,0.3s0.2,0,0.4,0.1c0.2,0.1,0.2,0.4,0.2,0.4s0.2,0,0.3-0.1c0.1,0,0.5-0.2,0.5-0.2l0.6-0.5l1.4-0.9c0,0,0,0,0,0
		c0-0.2-0.1-0.3-0.2-0.3c-0.1,0-0.1-0.1-0.2-0.1c-0.1,0-0.2,0-0.2-0.1c0-0.1,0-0.1,0-0.3C9,4.9,9,4.9,9,4.8c0,0,0.1-0.1,0.1-0.2
		c0,0,0-0.1,0-0.2c0-0.1,0-0.1,0-0.2c0-0.1,0.1-0.1,0-0.2C9,4,9.2,3.9,9.1,3.7C9,3.6,8.9,3.5,8.9,3.4c0,0,0,0,0.1-0.1
		c0,0,0-0.1,0-0.1c0-0.1-0.1-0.5-0.2-0.6C8.8,2.6,8.6,2.5,8.6,2.5c0-0.1,0-0.2-0.1-0.2C8.3,2.2,8.2,1.9,8.3,1.9
		c0.1,0,0.1-0.2,0.2-0.2c0.1,0,0.2-0.2,0.1-0.4c-0.1-0.1,0-0.3,0-0.5c-0.1,0-0.3,0-0.3-0.1c-0.1,0-0.2,0-0.3,0
		c-0.1,0-0.4,0.2-0.5,0.1c-0.1-0.1-1,0.1-1.3,0.1C6,0.9,5.9,1.2,5.7,1.2c-0.2,0-0.4,0.1-0.5,0.3c0,0-0.1,0.1-0.1,0.1
		c0,0,0,0.1,0.1,0.1C5.2,1.7,5.2,1.9,5.2,2z"/>
	<path fill="#66C8ED" d="M9.5,2.6c0,0-0.2,0.2-0.3,0.2c0,0,0,0.1,0,0.1c0,0,0,0.2-0.1,0.3c0,0.1-0.2,0.1-0.2,0.2
		c0,0,0.1,0.2,0.2,0.3C9.2,3.9,9,4,9.1,4.1c0.1,0.1,0,0.2,0,0.2c0,0.1,0,0.2,0,0.2c0,0.1,0.1,0.1,0,0.2c0,0-0.1,0.1-0.1,0.2
		C9,4.9,9,4.9,9.1,5c0.1,0.1,0,0.2,0,0.3c0,0.1,0.1,0.1,0.2,0.1c0.1,0,0.2,0.1,0.2,0.1c0.1,0,0.1,0.1,0.2,0.3c0,0,0.4,0,0.5,0.1
		c0.1,0.1,0.2,0.2,0.2,0.2l0.6-0.3l2.6,1.4V7h0.3c0,0,0-3.1,0-3.3c0-0.2-0.1-0.4,0-0.5c0.1-0.1,0-0.2,0-0.4c0,0,0-0.1,0-0.1
		c0,0,0,0,0,0c0-0.1-0.2-0.1-0.5-0.1c-0.3,0-0.2-0.2-0.5-0.3c-0.3,0-0.7,0.2-0.7,0.4c0,0.1,0.2,0.3,0,0.4c-0.1,0.1-0.3,0.2-0.5,0
		c-0.2-0.2-0.4-0.2-0.6-0.2c-0.2,0-0.3-0.1-0.3-0.2c0-0.1,0-0.2-0.2-0.2c-0.2,0-0.3-0.2-0.6-0.1c-0.2,0-0.3,0-0.4-0.1
		c0,0.1,0,0.1,0,0.2C9.6,2.6,9.5,2.5,9.5,2.6z"/>
	<path fill="#66C8ED" d="M0.6,9.3c0.1-0.1,0.2,0.1,0.3,0.1c0.1,0,0.2-0.1,0.2-0.1s0,0-0.2,0c-0.2,0-0.2-0.2-0.3-0.1
		C0.5,9.2,0.4,9.3,0.2,9.2c0,0.1,0,0.1,0,0.2c0,0,0.1,0,0.1,0C0.3,9.4,0.5,9.4,0.6,9.3z"/>
	<path fill="#66C8ED" d="M0.4,9.7c0.1,0,0.2-0.1,0.2-0.1s0.4,0,0.5,0c0,0,0.1,0,0.1,0c0,0,0,0,0,0s0.2,0,0.2,0.1
		c0,0.1,0.3,0.1,0.5,0c0,0,0,0,0,0c0-0.1,0-0.2,0-0.2c0,0-0.1-0.2-0.2-0.2C1.7,9.2,1.7,9,1.7,9L1.6,9c0,0,0-0.2-0.2-0.2
		c-0.1,0-0.2-0.3-0.2-0.3H1.1c0,0-0.1-0.1-0.2-0.2c-0.1,0-0.3,0-0.3,0s-0.2,0-0.3,0S0.2,8.4,0.1,8.4c0,0,0,0,0,0
		c0,0.1,0,0.2-0.1,0.3c-0.1,0.2,0,0.4,0.1,0.5c0,0,0,0,0,0.1c0.2,0,0.3,0,0.4-0.1c0.1-0.1,0.2,0.1,0.3,0.1c0.2,0,0.2,0,0.2,0
		S1,9.4,0.9,9.4c-0.1,0-0.2-0.1-0.3-0.1C0.5,9.4,0.3,9.4,0.2,9.4c0,0-0.1,0-0.1,0c0,0.1,0,0.1,0,0.2c0,0,0,0,0,0
		C0.4,9.6,0.3,9.7,0.4,9.7z"/>
	<path fill="#66C8ED" d="M0.7,10.1C0.8,10,0.9,9.9,1,9.9c0.1,0,0.1,0,0.1-0.1S1,9.8,1.1,9.7c0.1,0,0.1-0.1,0.1-0.1c0,0-0.1,0-0.1,0
		c-0.1,0-0.5,0-0.5,0S0.4,9.7,0.4,9.7c-0.1,0,0-0.1-0.2,0c0.1,0.1,0.1,0.2,0.3,0.2C0.7,9.9,0.5,10,0.7,10.1
		C0.6,10.1,0.6,10.1,0.7,10.1C0.7,10.1,0.7,10.1,0.7,10.1z"/>
	<path fill="#66C8ED" d="M14.4,11.7c0-0.1,0-0.1-0.1-0.2c-0.1-0.1-0.2-0.1-0.2-0.2c0-0.1,0-0.1-0.1-0.2C13.8,11,13.6,11,13.6,11
		l0-0.1l-0.1,0c0,0-0.1-0.1,0-0.1c0.1-0.1,0-0.2,0-0.3c0-0.1-0.2-0.3-0.2-0.3c0,0,0,0-0.1,0c-0.1,0-0.2,0-0.3,0.1
		c-0.1,0.1,0,0.1-0.1,0.2c0,0-0.2,0.2-0.3,0.3c-0.1,0.1-0.4,0-0.5,0.1c-0.1,0,0,0.1,0,0.2c-0.1,0-0.2,0.1-0.3,0.2
		c-0.1,0-0.3,0-0.4,0.1c-0.1,0.1-0.1-0.1-0.2,0c-0.1,0.1-0.1,0.1-0.2,0.1c0,0,0,0,0,0c-0.1,0.1-0.1,0.1-0.2,0.2
		c0,0.1-0.2,0.3-0.2,0.3c0,0.1,0,0.2,0,0.3c0,0.1,0,0.2,0.1,0.3c0.1,0.1,0.1,0.2,0.1,0.2s0,0,0.1,0.1c0.1,0.1,0.2,0.2,0.2,0.2
		c0,0,0,0,0.1,0.1c0,0,0,0,0,0c0.1-0.1,0.1-0.2,0.1-0.2l0.2,0l0.1,0l0.3,0v-0.2c0,0,0.2-0.3,0.4-0.3c0.1,0,0.3,0.2,0.3,0.2l0.6,0.1
		c0,0,0-0.2,0.1-0.2c0.1,0,0.2,0,0.3,0c0.1,0,0.2-0.1,0.4-0.1c0.1,0,0.2,0.1,0.3,0c0.1-0.1,0.4,0,0.4,0l0.2,0l-0.1-0.2
		C14.6,11.9,14.4,11.8,14.4,11.7z"/>
	<path fill="#66C8ED" d="M9.1,11.5c0,0,0.1,0,0.2,0c0.1,0,0.2,0.1,0.2,0.2c0,0.1,0.1,0,0.1-0.1c0.1-0.1,0.2-0.4,0.2-0.5
		c0-0.1,0.2-0.1,0.2-0.2c0,0,0-0.2,0-0.2c0,0,0.1-0.2,0.1-0.2c0,0,0.2-0.3,0.2-0.4c0,0,0.2,0,0.2-0.1c0-0.1,0-0.2,0-0.2
		c-0.1,0-0.1-0.1-0.1-0.1c0,0,0-0.1,0-0.2c-0.1,0-0.1-0.1-0.1-0.1c0,0,0-0.1-0.1-0.1c-0.1,0-0.1,0.2-0.2,0.2c-0.1,0-0.2,0-0.3-0.1
		c-0.1,0-0.3,0-0.4,0C9.2,9.3,9.1,9.5,9,9.5c-0.1,0-0.3,0-0.3,0c-0.1,0-0.2-0.1-0.3-0.1c-0.1,0-0.2,0-0.3,0.1C8.1,9.5,8.1,9.3,8,9.3
		c-0.1-0.1-0.2,0-0.3-0.1C7.6,9.1,7.6,9.3,7.5,9.3c-0.1,0-0.2,0-0.3,0c-0.1,0,0,0.2-0.1,0.3c0,0-0.1,0.2-0.1,0.2c0,0,0,0.1,0,0.1
		c0,0.1,0,0.2,0,0.2c0,0.1,0,0.4,0,0.5c-0.1,0.1-0.1,0.2-0.1,0.2S6.7,10.8,6.7,11c0,0.2,0,0.3,0,0.4c0,0.1,0.1,0.2,0.1,0.3
		c0,0,0,0,0,0c0.1,0.1,0.3,0.1,0.5,0.1c0.2,0,0.3,0.3,0.3,0.3c0,0.1,0.1,0.2,0.2,0.3c0.1,0,0.3-0.1,0.3-0.1c0.1,0,0.4,0,0.4,0
		c0,0,0,0,0.1,0c0.1-0.2,0.1-0.4,0.1-0.4S9.1,11.5,9.1,11.5z"/>
	<path fill="#66C8ED" d="M6.7,11c0-0.2,0.1-0.2,0.1-0.2s0.1-0.1,0.1-0.2c0.1-0.1,0-0.4,0-0.5c0,0,0-0.1,0-0.2c0,0-0.1,0-0.1,0
		c-0.1,0,0-0.1-0.1-0.2c-0.1,0-0.1,0.1-0.1,0.2c0,0.1,0,0.1-0.1,0.1c0,0-0.2,0.1-0.3,0.1c-0.1,0-0.1,0.1-0.2,0.1c0,0,0,0-0.1,0
		c0,0.3,0.1,0.2,0.2,0.3c0.1,0.1,0,0.2,0.1,0.3c0.1,0.1,0,0.2,0.1,0.4c0,0.1,0,0.4,0,0.6c0.1,0,0.2,0,0.2,0c0.1,0,0.2-0.1,0.2-0.1
		c0-0.1-0.1-0.2-0.1-0.3C6.7,11.2,6.7,11.1,6.7,11z"/>
	<path fill="#66C8ED" d="M6.3,10.7c-0.1-0.1,0.1-0.2-0.1-0.3C6.1,10.4,6,10.4,6,10.1c-0.1,0-0.2,0-0.3,0c0,0,0,0,0,0
		c0,0.1,0,0.2,0.1,0.2c0.1,0,0.1,0.1,0.1,0.2c0,0.1,0,0.4,0,0.5c0,0.1,0.1,0.3,0.1,0.5c0,0.1,0.1,0.3,0.1,0.4c0,0,0,0,0.1,0
		c0,0,0.1-0.1,0.2-0.1c0-0.2,0-0.5,0-0.6C6.3,10.9,6.3,10.8,6.3,10.7z"/>
	<path fill="#66C8ED" d="M9.7,13.1c0,0,0.8,0,0.9,0c0.1,0,0.5,0.2,0.5,0.2s0-0.2,0.1-0.3c0,0-0.1,0-0.1-0.1c0-0.1-0.2-0.1-0.2-0.2
		c-0.1-0.1-0.1-0.1-0.1-0.1s0-0.1-0.1-0.2c-0.1-0.1-0.1-0.1-0.1-0.3c0-0.1,0-0.2,0-0.3c0-0.1,0.1-0.2,0.2-0.3c0-0.1,0.1-0.1,0.2-0.2
		c0-0.1-0.1-0.1-0.1-0.2c0-0.1-0.1-0.2-0.3-0.3c-0.1-0.1-0.1-0.2-0.1-0.2c0,0,0.2,0,0.3,0c0.1,0,0.2,0,0.1,0c0,0-0.1-0.3-0.1-0.4
		c0-0.2,0-0.2,0-0.3c0-0.1-0.1-0.3-0.2-0.3c0,0,0,0,0,0c0,0.1,0,0.2,0,0.2c0,0,0.1,0.1,0.1,0.1c0.1,0,0,0.1,0,0.2
		c0,0.1-0.2,0.1-0.2,0.1c0,0-0.2,0.3-0.2,0.4c0,0,0,0.2-0.1,0.2c0,0,0,0.1,0,0.2c0,0-0.2,0.1-0.2,0.2c0,0.1-0.2,0.4-0.2,0.5
		c-0.1,0.1-0.1,0.2-0.1,0.1c0-0.1-0.2-0.2-0.2-0.2c-0.1,0-0.2,0-0.2,0c0,0-0.4,0.4-0.4,0.4s0,0.2-0.1,0.4c0,0,0.1,0.1,0.1,0.2
		c0.1,0.1,0.2,0,0.3,0.1c0.1,0,0.1,0.3,0.1,0.3c0,0.1-0.1,0.2-0.1,0.3h0.5L9.7,13.1z"/>
	<path fill="#66C8ED" d="M4.8,12c0-0.1-0.1-0.3-0.1-0.4c0-0.1,0.1-0.2,0.1-0.3c0-0.1,0.1-0.1,0.1-0.2c0-0.1,0-0.3-0.1-0.5
		c0,0,0,0-0.1,0c-0.1-0.1-0.3,0-0.4,0c-0.1,0.1-0.3-0.1-0.3-0.1c0,0-0.2-0.2-0.3-0.1c-0.1,0.1-0.1,0-0.1,0c0-0.1-0.1-0.1-0.2,0
		c0,0.1-0.1,0.1-0.2,0.1c0-0.1-0.1-0.1-0.2,0c0,0.1-0.1,0.1-0.1,0c0,0.1-0.1,0.2,0,0.3c0.1,0,0.1,0.1,0.1,0.2c0,0,0.1,0.2,0.1,0.2
		C3.1,11.1,3,11,3,11.1c0,0.1,0.1,0.1,0,0.2c0,0.1-0.1,0.1-0.1,0.2c0,0.1,0,0.2,0,0.2c0,0,0,0,0.1,0.1c0.1,0.1,0.3,0.1,0.3,0.3
		c0,0.1-0.1,0.1-0.1,0.3c0.2,0,0.6-0.1,1-0.2c0.3,0,0.5,0,0.7,0C4.8,12.1,4.8,12,4.8,12z"/>
	<path fill="#66C8ED" d="M5.9,11c0-0.1,0-0.4,0-0.5c0-0.1,0-0.2-0.1-0.2c0,0-0.1-0.1-0.1-0.2c-0.1,0-0.1,0.1-0.1,0.1
		c0,0-0.8-0.1-0.8,0c0,0.1,0.1,0.3,0.1,0.3c0,0,0,0.1,0,0.1c0.1,0.2,0.1,0.5,0.1,0.5c0,0.1-0.1,0.1-0.1,0.2c0,0.1-0.1,0.3-0.1,0.3
		c0,0.1,0.1,0.3,0.1,0.4c0,0,0,0.1,0,0.2c0.1,0,0.2,0.1,0.3,0.1c0.1,0,0.5-0.2,0.6-0.3c0.1-0.1,0.3-0.1,0.4-0.2
		C6,11.7,6,11.6,6,11.5C6,11.3,5.9,11.1,5.9,11z"/>
	<path fill="#66C8ED" d="M1.5,10.6c0-0.1,0.1-0.1,0.2,0c0.1,0,0.2-0.1,0.3-0.1s0.3,0.3,0.3,0.3c0,0.1,0,0.1,0,0.2c0,0,0,0,0,0
		c0.1,0,0.2,0,0.2,0c0,0,0.1,0.2,0.1,0.3c0,0.1,0.1,0.2,0.2,0.1c0.1-0.1,0.1-0.2,0.1-0.1c0,0,0,0,0.1,0.1c0,0,0.1-0.1,0.1-0.1
		c0-0.1-0.1-0.1,0-0.2c0-0.1,0.1,0,0.2,0c0.1-0.1-0.1-0.2-0.1-0.2c0,0,0-0.1-0.1-0.2c-0.1,0,0-0.2,0-0.3c0,0,0,0,0,0
		c0-0.1,0-0.2-0.1-0.2c-0.1,0-0.1-0.1,0-0.1C3,10,2.8,10,2.8,9.9c0-0.1-0.1-0.2-0.1-0.2c0,0-0.2,0.2-0.2,0.2c-0.1,0-0.2-0.1-0.2,0
		c0,0.1-0.1,0-0.2,0C1.9,9.9,1.9,9.7,1.9,9.7s0,0,0-0.1c0,0,0,0,0,0c-0.2,0.1-0.5,0-0.5,0c0-0.1-0.2-0.1-0.2-0.1s0,0.1-0.1,0.2
		c-0.1,0,0,0.1,0,0.2S1,10,1,9.9c-0.1,0-0.2,0.1-0.3,0.2c0,0,0,0,0,0c0.1,0.1,0.1,0.2,0.2,0.3c0.1,0.1,0.3,0.2,0.4,0.4
		C1.4,10.8,1.5,10.6,1.5,10.6z"/>
	<path fill="#66C8ED" d="M3,11.8c-0.1-0.1-0.2-0.1-0.1-0.1c0,0,0.1-0.1,0-0.2c0,0,0-0.1,0-0.1c0,0-0.1,0-0.1-0.1
		c0-0.1-0.1,0-0.1,0.1c-0.1,0.1-0.2,0-0.2-0.1c0-0.1-0.1-0.3-0.1-0.3c0,0-0.1,0-0.2,0c0,0.1,0,0.1,0,0.2c0,0.1-0.2,0.2-0.3,0.2
		c0,0,0,0.1-0.1,0.1c0.1,0.1,0.3,0.2,0.4,0.3c0.2,0.2,0.6,0.4,0.8,0.5c0,0,0.1,0,0.1,0c0-0.2,0.1-0.2,0.1-0.3
		C3.3,11.9,3.1,11.9,3,11.8z"/>
	<path fill="#66C8ED" d="M2.2,11.2c0-0.1,0.1-0.1,0-0.2c0-0.1,0-0.1,0-0.2c0-0.1-0.2-0.3-0.3-0.3s-0.2,0.1-0.3,0.1
		c-0.1,0-0.1,0-0.2,0c0,0.1-0.1,0.2-0.2,0.3c0,0,0,0.1,0,0.1c0.1,0.3,0.2,0.3,0.3,0.4c0.1,0,0.2,0.1,0.3,0.2c0-0.1,0.1-0.1,0.1-0.1
		C2,11.4,2.2,11.3,2.2,11.2z"/>
	<path fill="#66C8ED" d="M1.3,6c0-0.1,0.3-0.2,0.3-0.3c0-0.1,0-0.9,0-0.9s1.1,0,1.1,0c0,0,0-0.2,0-0.5c0-0.1,0-0.1-0.2-0.1
		c-0.2,0-0.8,0-1.2,0C1.2,4.4,1.2,4.5,1.2,4.6C1.1,4.7,0.7,5,0.7,5.2c0,0.2-0.4,0.6-0.6,1C0.1,6.4,0,6.5,0,6.6h1.3
		C1.3,6.6,1.3,6.1,1.3,6z"/>
	<path fill="#66C8ED" d="M0.3,8.3c0.1,0,0.3,0,0.3,0s0.2-0.1,0.3,0c0.1,0,0.2,0.2,0.2,0.2h0.1c0,0,0.1,0.3,0.2,0.3
		c0.1,0,0.1,0.1,0.2,0.2c0.1,0,0.2,0,0.2-0.1c0-0.1,0-0.2,0.2-0.1c0.2,0.1,0.2,0,0.2,0c0,0,0.1,0,0.2,0c0.1,0,0.2-0.1,0.2-0.1
		s1.2,0,1.3,0c0.1,0,0-0.3,0-0.3L3.8,8.2l-0.3-3h0.6C3.5,4.8,3,4.5,2.9,4.5c0,0-0.1,0-0.1-0.1c0,0.2,0,0.5,0,0.5c0,0-1.1,0-1.1,0
		s0,0.8,0,0.9C1.7,5.9,1.3,6,1.3,6s0,0.5,0,0.5H0c0,0.2,0.1,0.3,0.2,0.4c0.1,0.1-0.1,0.3,0.1,0.5c0.2,0.2,0,0.5-0.1,0.7
		c0,0.1,0,0.2-0.1,0.3c0,0,0,0,0,0C0.2,8.4,0.2,8.2,0.3,8.3z"/>
	<path fill="#66C8ED" d="M6.9,7.4c0,0,0-0.3-0.2-0.4C6.6,7,6.4,6.9,6.4,6.9S6.2,6.7,6.1,6.6C6.1,6.6,5,5.8,4.1,5.2H3.5l0.3,3
		l0.1,0.1c0,0,0,0.3,0,0.3c-0.1,0-1.3,0-1.3,0S2.5,8.7,2.4,8.7c-0.1,0-0.2-0.1-0.2,0c0,0,0,0.2-0.2,0c-0.2-0.1-0.2,0-0.2,0.1
		c0,0.1-0.1,0.1-0.2,0.1c0,0,0,0.1,0,0.1L1.7,9c0,0,0,0.1,0,0.2c0.1,0.1,0.2,0.2,0.2,0.2c0,0,0,0.3,0,0.3s0,0.2,0.1,0.1
		c0.1-0.1,0.1,0.1,0.2,0c0-0.1,0.2,0,0.2,0c0.1,0,0.2-0.2,0.2-0.2c0,0,0.1,0.2,0.1,0.2C2.8,10,3,10,2.9,10.1c-0.1,0-0.1,0.1,0,0.1
		c0.1,0,0,0.1,0.1,0.2c0,0.1,0.1,0.1,0.2,0c0-0.1,0.1,0,0.2,0c0,0.1,0.2,0,0.2-0.1c0-0.1,0.2-0.1,0.2,0c0,0.1,0,0.1,0.1,0
		c0,0,0.1,0,0.1,0c0-0.1,0.1-0.2,0.1-0.3C4,10,3.9,9.9,4,9.9c0,0,0.2,0,0.3-0.1c0-0.1,0.1-0.2,0.1-0.2s0-0.3,0.1-0.2
		c0.1,0,0.2,0.1,0.2,0c0-0.1,0.1,0,0.1-0.2C4.8,9,4.9,9,5,9.1c0.1,0,0.1,0,0.1-0.1c0-0.1,0.2,0,0.3-0.1c0.1-0.1,0.2-0.2,0.2-0.1
		c0,0,0.4,0,0.4,0c0,0,0.1-0.1,0.3-0.1c0.1,0,0.4,0,0.5,0S7,8.5,7.1,8.5c0,0,0.1-0.2,0.1-0.2c0,0,0-0.6,0-0.9
		C7.1,7.4,6.9,7.4,6.9,7.4z"/>
	<path fill="#66C8ED" d="M6.6,9.8c-0.1,0-0.1-0.1-0.1-0.1c0,0,0-0.2,0-0.2c0,0-0.1,0-0.2,0c-0.1,0-0.1-0.1-0.1-0.1
		c-0.1,0-0.1-0.1-0.1-0.1c0-0.1-0.1-0.1-0.2-0.2C5.9,9.1,5.9,9,5.8,9c0,0,0-0.1,0-0.2c-0.1,0-0.2,0-0.2,0c0,0-0.1,0-0.2,0.1
		C5.2,9,5.1,8.9,5.1,9C5.1,9.1,5,9.1,5,9.1C4.9,9,4.8,9,4.8,9.1c0,0.1-0.1,0-0.1,0.2c0,0.1-0.1,0-0.2,0c-0.1,0-0.1,0.2-0.1,0.2
		S4.3,9.6,4.2,9.7C4.2,9.9,4,9.8,4,9.9c0,0,0,0.2,0,0.2c0,0-0.1,0.1-0.1,0.3C4,10.4,4,10.4,4,10.4c0,0,0.2,0.2,0.3,0.1
		c0.1-0.1,0.3-0.1,0.4,0c0.1,0.1,0.1,0,0.1,0c0-0.1-0.1-0.3-0.1-0.3c0-0.1,0.8,0,0.8,0c0,0,0-0.1,0.1-0.1c0.1,0,0.2,0.1,0.3,0
		c0.1,0,0.1-0.1,0.2-0.1c0.1,0,0.2,0,0.3-0.1C6.6,9.9,6.6,9.9,6.6,9.8L6.6,9.8z"/>
	<path fill="#66C8ED" d="M10.8,6.4c0,0,0-0.3,0-0.4l-0.3,0.1c0,0-0.1-0.1-0.2-0.2c-0.1-0.1-0.5-0.1-0.5-0.1L8.4,6.7L7.7,7.2
		c0,0-0.4,0.1-0.5,0.2c0,0,0,0,0,0c0,0.2,0,0.9,0,0.9c0,0-0.1,0.2-0.1,0.2c0,0-0.1,0.1-0.2,0.1s-0.4,0.1-0.5,0
		C6.2,8.7,6.1,8.8,6,8.8c0,0-0.1,0-0.2,0c0,0.1,0,0.2,0,0.2c0,0,0.1,0.1,0.1,0.2c0.1,0,0.2,0.1,0.2,0.2c0,0.1,0,0.1,0.1,0.1
		c0.1,0,0.1,0.1,0.1,0.1c0.1,0,0.2,0,0.2,0c0,0,0,0.2,0,0.2c0,0,0.1,0,0.1,0.1c0-0.1,0-0.2,0.1-0.2c0.1,0,0,0.1,0.1,0.2
		c0.1,0,0.1,0,0.1-0.1c0-0.1,0.1-0.2,0.1-0.2c0,0,0-0.2,0.1-0.3c0.1,0,0.2,0,0.3,0c0.1,0,0.1-0.1,0.2-0.1c0.1,0.1,0.2,0,0.3,0.1
		c0.1,0.1,0.1,0.2,0.2,0.2c0.1-0.1,0.2-0.1,0.3-0.1c0.1,0,0.2,0.1,0.3,0.1c0.1,0,0.3,0,0.3,0c0.1,0,0.2-0.2,0.2-0.2
		c0.1,0,0.4,0,0.4,0c0.1,0,0.2,0.1,0.3,0.1c0.1,0,0.2-0.2,0.2-0.2c0,0,0,0,0,0c0,0,0-0.1,0-0.1c0-0.2,0-0.1,0.1-0.3
		c0-0.2,0.5-0.6,0.5-0.7c0,0,0-0.7,0-0.8c0-0.1,0-0.2,0.1-0.4c0-0.1-0.1-0.1-0.1-0.3C10.9,6.6,10.8,6.5,10.8,6.4z"/>
	<path fill="#66C8ED" d="M13.6,7.2l-2.6-1.4L10.8,6c0,0.2,0,0.4,0,0.4c0,0.1,0.1,0.2,0.1,0.3C10.9,6.8,11,6.8,11,7
		c0,0.1-0.1,0.3-0.1,0.4c0,0.1,0,0.8,0,0.8c0,0-0.5,0.5-0.5,0.7c0,0.2-0.1,0.1-0.1,0.3c0,0,0,0.1,0,0.1c0,0,0,0,0.1,0.1
		c0,0,0,0.1,0.1,0.1c0.1,0,0.2,0.2,0.2,0.3c0,0.1,0,0.1,0,0.3c0,0.2,0.1,0.4,0.1,0.4c0,0,0,0.1-0.1,0c-0.1,0-0.3,0-0.3,0
		c0,0,0,0.1,0.1,0.2c0.1,0.1,0.2,0.2,0.3,0.3c0,0.1,0.1,0.2,0.1,0.3c0,0,0.1,0,0.2-0.1c0.1-0.1,0.1,0.1,0.2,0
		c0.1-0.1,0.3-0.1,0.4-0.1c0.1,0,0.2-0.1,0.3-0.2c0.1,0-0.1-0.1,0-0.2c0.1,0,0.4,0,0.5-0.1c0.1-0.1,0.3-0.3,0.3-0.3
		c0,0,0-0.1,0.1-0.2c0.1-0.1,0.2-0.1,0.3-0.1c0,0,0,0,0.1,0c0,0,0,0,0,0l0-0.1c0,0-0.2-0.1-0.2-0.2c0-0.1,0-0.2-0.1-0.2
		c-0.1,0-0.1-0.1,0-0.2c0.1-0.1-0.1-0.2,0-0.2c0.1,0,0-0.2,0.1-0.2c0.1,0,0.1-0.1,0.1-0.2s0.2-0.2,0.3-0.2c0.1,0,0-0.4,0-0.4V7.2z"
		/>
	<path fill="#66C8ED" d="M17.3,3.5L17,2.9c0,0,0,0,0,0.1c0,0-0.2-0.1-0.4,0c-0.2,0-0.3,0-0.4-0.1c-0.1-0.1-0.6,0-0.7,0.1
		c-0.1,0.1-0.2,0.1-0.4,0c-0.1-0.1-0.3-0.1-0.6-0.2c-0.3,0-0.5-0.1-0.5-0.1c0,0,0,0.1,0,0.1c-0.1,0.2,0.1,0.3,0,0.4
		c-0.1,0.1,0,0.3,0,0.5c0,0.2,0,1.7,0,2.6h2c0,0,0.1,0,0.1-0.1c0.1,0,0.2,0.1,0.2,0.1h0.4c0,0,0.1,0.1,0.2,0.1c0.1,0,0-0.2,0.2-0.2
		c0.2,0,0.1-0.2,0.2-0.2c0.1,0,0.1,0,0.2-0.1c0,0,0,0,0,0c0,0,0-0.1,0-0.1c0-0.2-0.1-0.1-0.2-0.4C17.3,5.1,17,4.8,17,4.6
		c0-0.1-0.2-0.2-0.2-0.3c0-0.1-0.1-0.2-0.2-0.4c-0.2-0.2-0.2-0.6-0.2-0.6c0,0,0.2,0.3,0.2,0.4c0,0.1,0.2,0.4,0.3,0.4
		c0.1,0,0.2-0.5,0.2-0.5c0,0,0,0,0,0l0-0.1L17.3,3.5z"/>
	<path fill="#66C8ED" d="M9.6,15.1c0.2,0,0.1-0.1,0-0.3c-0.1-0.2,0.1-0.1,0.2-0.1c0.1,0,0.1-0.2,0.1-0.2c0.1,0,0.1,0.2,0.2,0.2
		c0.1,0,0.1,0.1,0.2,0c0.1,0,0.1-0.2,0.1-0.4c0-0.2,0-0.3-0.1-0.4c-0.1-0.1-0.2-0.2-0.1-0.3c0.1-0.1,0.1-0.2,0-0.3
		c-0.1-0.1-0.3,0.1-0.3,0c0,0,0-0.2,0-0.3c-0.2,0-0.5,0-0.5,0l-0.1,0c0,0.2,0,0.4,0,0.4s-0.4,0-0.5,0c0,0-0.1,0-0.2,0
		c0,0,0,0.1-0.1,0.1c0,0,0.1,0.1,0.1,0.2c0,0.1-0.2,0-0.2,0.1c0,0.1-0.1,0.2-0.1,0.2c-0.1,0,0.2,0.2,0.2,0.3c0,0.1,0.1,0.1,0.2,0.3
		C9.3,15,9.2,15,9.5,15.2C9.5,15.1,9.6,15.1,9.6,15.1z"/>
	<path fill="#66C8ED" d="M9.6,13.5c0,0,0-0.2,0-0.4l-0.1,0H9.1c0,0,0,0,0,0c0,0.1,0,0.2-0.1,0.2c-0.1,0-0.1,0.1,0,0.1
		c0.1,0,0,0,0,0.1c0.1,0,0.1,0,0.2,0C9.2,13.6,9.6,13.5,9.6,13.5z"/>
	<path fill="#66C8ED" d="M10.1,15.4c0.1,0,0.1,0.1,0.2,0c0.1-0.1,0.3-0.1,0.3,0c0,0.1,0,0.1,0.1,0c0.1-0.1,0.2,0,0.2-0.2
		c0-0.2,0.1,0,0.1-0.2c0-0.2,0-0.5,0-0.6c0-0.1,0.3-0.2,0.3-0.4c0-0.2,0.2-0.5,0.2-0.7c0-0.2,0.1-0.2,0.1-0.4c0-0.1,0.1-0.2,0-0.3v0
		l-0.3,0l-0.1,0l-0.2,0c0,0,0,0.1-0.1,0.2C11.1,13,11,13.3,11,13.3s-0.4-0.2-0.5-0.2c0,0-0.2,0-0.4,0c0,0.1,0,0.3,0,0.3
		c0,0.1,0.2-0.1,0.3,0c0.1,0.1,0.1,0.2,0,0.3c-0.1,0.1,0,0.2,0.1,0.3c0.1,0.1,0.1,0.2,0.1,0.4c0,0.2,0,0.4-0.1,0.4
		c-0.1,0-0.2-0.1-0.2,0c-0.1,0-0.1-0.2-0.2-0.2c-0.1,0,0,0.2-0.1,0.2c-0.1,0-0.3,0-0.2,0.1c0.1,0.2,0.1,0.3,0,0.3
		c-0.1,0-0.1,0-0.2,0.1c0,0,0,0,0,0c0.1,0.1,0.2,0.2,0.3,0.4C9.9,15.5,10.1,15.4,10.1,15.4z"/>
	<path fill="#66C8ED" d="M17.3,6c-0.1,0-0.1,0.2-0.2,0.2c-0.2,0-0.1,0.2-0.2,0.2c-0.1,0-0.2-0.1-0.2-0.1h-0.4c0,0-0.1-0.1-0.2-0.1
		C16,6.2,16,6.3,16,6.3h-2c0,0.4,0,0.7,0,0.7h-0.3v1.1c0,0,0,0.3,0,0.4c-0.1,0-0.3,0.1-0.3,0.2s0,0.2-0.1,0.2c-0.1,0,0,0.2-0.1,0.2
		c-0.1,0,0.1,0.2,0,0.2c-0.1,0.1-0.1,0.2,0,0.2c0.1,0,0.1,0.1,0.1,0.2c0,0.1,0.2,0.2,0.2,0.2l0,0.1c0,0,0.2,0.3,0.2,0.3
		c0,0.1,0.1,0.2,0,0.3c-0.1,0.1,0,0.1,0,0.1l0.1,0l0,0.1c0,0,0.2,0,0.3,0.1c0.1,0.1,0.1,0.1,0.1,0.2c0,0.1,0.1,0.1,0.2,0.2
		c0.1,0.1,0.1,0.2,0.1,0.2c0,0.1,0.2,0.2,0.2,0.2l0.1,0.2c0,0,0.1,0,0.1,0.1c0,0.1,0.1,0.2,0.1,0.2s0.1,0.1,0.2,0
		c0.1-0.1,0.2,0,0.2,0s0.1-0.1,0.2,0c0,0,0.2,0.2,0.4,0.3c0,0,0.2-0.1,0.2-0.1c0.1,0,0.2,0.1,0.2,0.1c0,0,0.2-0.1,0.2-0.1
		c0.1,0,0.2,0,0.2,0c0,0,0.1-0.1,0.1-0.1c0,0,0,0,0-0.1c0-0.1,0.2-0.2,0.3-0.2c0.1,0,0.2,0,0.2,0c0,0,0,0,0.1,0.1
		c0-0.2,0.1-0.3,0-0.3c-0.1,0-0.2-0.1-0.3-0.2c-0.1-0.2-0.2-0.3-0.3-0.4c0-0.1-0.3-0.1-0.3-0.2c0-0.1,0.1-0.1,0.1-0.2
		c0-0.1,0.2,0,0.3-0.1c0,0,0-0.2,0-0.4c0-0.1,0.2-0.2,0.1-0.3c-0.1-0.1,0.1-0.1,0.1-0.1c0.1-0.1,0-0.2,0.1-0.3
		c0.1-0.1,0.1-0.2,0.2-0.2c0.1,0,0.1-0.1,0.1-0.2c0-0.1,0.1-0.2,0.1-0.4c0-0.1-0.1-0.3,0-0.5c0.1-0.1,0.1-0.2,0.1-0.3
		c0-0.1,0.1-0.1,0.2-0.2c0,0,0.2-0.1,0.3-0.3c-0.1-0.1-0.2-0.2-0.2-0.2C18.1,7.5,18,7.3,18,7C18,6.7,18,6.5,18,6.4
		c0-0.1-0.1-0.3-0.3-0.3c-0.1-0.1-0.2-0.1-0.2-0.3c0,0,0,0,0,0C17.4,6,17.4,6,17.3,6z"/>
	<path fill="#66C8ED" d="M19.7,9.6c0,0-0.1,0.2-0.2,0.2c-0.1,0.1,0,0.2,0,0.3c0,0,0.1,0,0.2,0c0,0,0.1,0,0.2,0.1
		c0-0.1,0.1-0.1,0.1-0.2c-0.1,0-0.2-0.1-0.2-0.1c0,0,0.1-0.1,0.2-0.2c0.1,0,0-0.1,0-0.2c0,0,0,0,0,0c0,0-0.1,0-0.1,0.1
		C19.9,9.6,19.8,9.6,19.7,9.6z"/>
	<path fill="#66C8ED" d="M18.1,8c-0.1,0.1-0.2,0.1-0.2,0.2c0,0.1,0,0.2-0.1,0.3c-0.1,0.1,0,0.3,0,0.5c0.1,0,0.3,0,0.3,0
		c0.1,0.1,0.1,0,0.1-0.1c0-0.1,0.1-0.1,0.2,0c0.1,0.1,0.1,0.1,0.2,0.1c0.1-0.1,0.1,0,0.1,0c0.1,0,0.3,0,0.3,0c0.1,0,0.7,0.7,0.7,0.7
		s0,0,0,0c0.1,0,0.1,0,0.2,0c0,0,0,0,0.1-0.1c-0.1-0.1-0.2-0.2-0.4-0.4c-0.2-0.2-0.4-0.4-0.5-0.4c-0.1,0-0.1-0.2-0.2-0.2
		c-0.1,0-0.2-0.3-0.2-0.5c0-0.1-0.1-0.3-0.2-0.4C18.3,7.9,18.2,8,18.1,8z"/>
	<path fill="#66C8ED" d="M16.9,11.4c0,0.1,0.2,0.2,0.3,0.4c0.1,0.2,0.2,0.2,0.3,0.2c0.1,0,0,0.1,0,0.3c0,0,0.1,0,0.1,0
		c0.1,0,0.3,0,0.3,0.1c0.1,0.1,0.3,0.2,0.4,0.2c0.1,0,0.3,0,0.4,0.1c0,0,0.1-0.1,0.2-0.2c0.1-0.1,0.3-0.1,0.3-0.1
		c0,0.1,0.1,0.1,0.2,0.1c0,0,0.1,0,0.2,0c0.1,0,0.2,0,0.3,0c0.1,0,0.2-0.2,0.4-0.2c0.2,0,0.3,0,0.4-0.1c0.1-0.1,0.8-0.8,0.9-0.9
		c0.1-0.1,0-0.1-0.1-0.1c-0.1,0-0.2,0-0.5-0.1c-0.2-0.1-0.6-0.2-0.7-0.2c-0.1,0-0.2-0.2-0.2-0.2c-0.1,0-0.2-0.2-0.2-0.3
		c0,0,0-0.1,0.1-0.1c-0.1-0.1-0.1-0.1-0.2-0.1c-0.1,0-0.2,0.1-0.2,0c0,0-0.1-0.2,0-0.3c0.1-0.1,0.2-0.2,0.2-0.2S19.1,8.9,19,8.9
		c-0.1,0-0.3,0-0.3,0c-0.1,0,0-0.1-0.1,0c-0.1,0.1-0.1,0-0.2-0.1c-0.1-0.1-0.1-0.1-0.2,0C18.1,9,18.1,9,18.1,9c0,0-0.2,0-0.3,0l0,0
		c0,0.1-0.1,0.3-0.1,0.4c0,0.1-0.1,0.2-0.1,0.2c-0.1,0-0.1,0.2-0.2,0.2c-0.1,0.1,0,0.3-0.1,0.3c-0.1,0.1-0.2,0.1-0.1,0.1
		c0.1,0.1-0.1,0.2-0.1,0.3c0,0.1,0,0.4,0,0.4c0,0-0.3,0-0.3,0.1c0,0.1-0.1,0.1-0.1,0.2C16.6,11.3,16.9,11.3,16.9,11.4z"/>
	<path fill="#66C8ED" d="M19.2,12.9l0.2-0.2l0.2-0.2c-0.1,0-0.1,0-0.2,0c-0.1,0-0.1,0-0.2-0.1c0-0.1-0.2,0-0.3,0.1
		c-0.1,0.1-0.2,0.2-0.2,0.2c0,0-0.3-0.1-0.4-0.1c-0.1,0-0.3-0.2-0.4-0.2c-0.1-0.1-0.3,0-0.3-0.1c-0.1,0-0.2-0.1-0.2-0.1
		c0,0-0.1,0-0.2,0c-0.1,0-0.3,0.1-0.3,0.2c0,0,0,0,0,0.1l0.2,0.1l0,0.2l0.1,0.1c0,0,0,0.1,0,0.3c0,0.1-0.1,0.3-0.2,0.4
		c0,0-0.1,0.1-0.1,0.2c0.1,0,0.2,0.1,0.2,0.1c0,0.1-0.2,0-0.2,0.2c0,0,0,0,0,0l1.3,0.7l0,0.2c0,0,0.3,0.2,0.6,0.4
		c0.1-0.3,0.3-0.7,0.3-0.7c0.1-0.1,0.1-0.1,0.2-0.2c0.1-0.1,0.1,0,0.2-0.1c0,0,0,0,0,0l-0.2-0.3L19.2,12.9z"/>
	<path fill="#66C8ED" d="M17.1,12.8l0-0.2l-0.2-0.1c0,0-0.1,0.1-0.1,0.1c0,0.1-0.1,0-0.2,0c-0.1,0-0.2,0-0.2,0.1
		c0,0-0.1-0.1-0.2-0.1c-0.1,0-0.3,0.1-0.3,0.1s0,0.2,0,0.3c0,0.1,0.1,0.1,0.1,0.2c0,0.1-0.1,0.1-0.1,0.2c0,0-0.1,0.1-0.1,0.1
		c-0.1,0-0.1,0.1-0.1,0.2c-0.1,0,0,0.2-0.1,0.2c0,0.1-0.1,0.2-0.1,0.3c0,0.1,0,0.2-0.1,0.2c0.1,0,0.1,0,0.2,0c0.1,0,0.3-0.1,0.3-0.1
		l0.3,0c0.1-0.2,0.2-0.3,0.3-0.4c0.1,0,0.3,0,0.4,0c0-0.1,0.1-0.2,0.1-0.2c0.1-0.1,0.2-0.3,0.2-0.4c0-0.1,0-0.3,0-0.3L17.1,12.8z"/>
	<path fill="#66C8ED" d="M22,18c0-0.2-0.1,0.1-0.1,0.1c0,0-0.1,0.2,0,0.2c0,0.1-0.1,0.2-0.2,0.1c-0.1,0-0.2,0-0.2,0.1
		c0,0.1-0.1,0.1,0,0.2c0,0.1-0.1,0.2-0.2,0.2c-0.1,0-0.3,0.3-0.5,0.2c-0.1,0-0.3,0.1-0.4,0.1c-0.1,0,0,0.3-0.1,0.4
		c-0.1,0.2,0,0.4,0,0.6c0.1,0.2,0.2,0.4-0.1,0.7c-0.2,0.3-0.2,0.6-0.1,0.8c0.1,0.2,0.1,0.5,0.2,0.6c0.1,0.1,0.5,0.3,0.6,0.1
		c0.1-0.1,0.2,0,0.3-0.1c0.1-0.1,0.3-0.9,0.5-1.4c0.2-0.5,0.4-1.2,0.4-1.3c0-0.1,0.1-0.2,0.1-0.4c-0.1-0.1,0-0.3,0.1-0.2
		c0.1,0.1,0.2,0.1,0.2,0c0-0.2-0.1-0.4-0.1-0.6C22.3,18.3,22.1,18.1,22,18z"/>
	<path fill="#66C8ED" d="M15.4,16.2c-0.2-0.1-0.2-1.2-0.1-1.2c0,0,0,0,0,0l0-0.3c0,0,0,0,0,0c0,0-0.1,0-0.1-0.1
		c0-0.1,0.1-0.1,0.1-0.1s0-0.2,0.1-0.2c0,0,0,0,0,0c0-0.1,0.1-0.2,0.1-0.2c0-0.1,0-0.2,0.1-0.3c0-0.1,0-0.2,0.1-0.2
		c0.1,0,0.1-0.2,0.1-0.2c0.1,0,0.1-0.1,0.1-0.1c0,0,0.1-0.1,0.1-0.2c0-0.1-0.1-0.1-0.1-0.2c0-0.1,0-0.3,0-0.3s0,0,0,0
		c-0.2-0.1-0.3-0.3-0.4-0.3c-0.1,0-0.2,0-0.2,0s-0.1-0.1-0.2,0c-0.1,0.1-0.2,0-0.2,0s-0.1-0.1-0.1-0.2c0,0,0-0.1-0.1-0.1l0,0l-0.2,0
		c0,0-0.3-0.2-0.4,0c-0.1,0.1-0.1,0-0.3,0c-0.1,0-0.3,0.1-0.4,0.1c-0.1,0-0.2,0-0.3,0c-0.1,0-0.1,0.2-0.1,0.2l-0.6-0.1
		c0,0-0.1-0.2-0.3-0.2c-0.1,0-0.4,0.3-0.4,0.3v0.2c0,0.1,0,0.3,0,0.3c-0.1,0.1-0.1,0.1-0.1,0.4c0,0.2-0.2,0.5-0.2,0.7
		c0,0.2-0.3,0.3-0.3,0.4c0,0.1,0,0.3,0,0.6c0,0.2-0.1,0-0.1,0.2c0,0.2-0.1,0.1-0.2,0.2c-0.1,0.1-0.1,0.1-0.1,0c0-0.1-0.1-0.1-0.3,0
		c-0.1,0.1-0.2,0-0.2,0c0,0-0.2,0.1-0.3,0.2c0.1,0.1,0.1,0.3,0.1,0.4c0,0,0,0,0,0c0.1-0.1,0.1-0.1,0.2-0.1c0.1,0,1.1,0,1.1,0
		s0.1,0.1,0.1,0.3c0,0.1,0.1,0.1,0.1,0.3c0.1,0.2,0.1,0.3,0.3,0.2c0.1,0,0.3-0.1,0.4-0.1c0.1,0,0-0.3,0.1-0.3c0.1,0,0.3,0,0.3,0
		s0,0.1,0.2,0.1s0.2-0.1,0.2,0c0,0.1,0,0.2,0.1,0.3c0,0-0.1,0.4,0,0.5c0.1,0.1,0.2,0.2,0.2,0.3c0,0.1-0.1,0.3,0,0.3
		c0.1,0,0.1-0.1,0.2-0.1c0.1,0,0.2,0,0.3,0c0,0,0.1,0,0.1,0c0.1,0,0.1,0.1,0.1,0.1s0,0.1,0.1,0.1c0.1,0,0.2-0.1,0.2,0
		c0,0.1,0,0.2,0.1,0.2c0.1,0,0.2,0.1,0.3,0.1c0.1,0,0.1,0,0.1,0c0,0,0.1-0.1,0.1-0.1c0,0.1,0.1,0.2,0.2,0.2c0.1,0,0.3,0,0.3,0.1
		c0,0.1,0.1,0.2,0.1,0.3c0.1,0.1,0.2,0,0.2,0s0.1,0,0.1-0.1c0-0.1,0-0.2,0-0.2c0,0-0.1,0.1-0.2,0.1c-0.1,0-0.2-0.2-0.2-0.3
		c0,0,0.1-0.2,0.1-0.3c0-0.1,0.1-0.3,0-0.4c-0.1,0,0-0.1,0-0.2c0.1-0.1,0-0.2,0.1-0.2c0.1,0,0.3,0,0.4-0.1c0,0,0,0,0,0
		c0,0,0,0,0-0.1C15.6,16.5,15.5,16.3,15.4,16.2z"/>
	<path fill="#66C8ED" d="M15.3,15c0,0.1,0.1,0.2,0.1,0.3c0.1,0,0.1-0.1,0.1-0.1c0.1,0,0.3-0.4,0.3-0.4l-0.1-0.1c0,0,0-0.1,0-0.2
		c-0.1,0-0.2,0-0.2,0s0,0.1-0.2,0.1c0,0-0.1,0-0.1,0c0,0,0,0,0,0L15.3,15z"/>
	<path fill="#66C8ED" d="M19.2,18.9c0-0.1-0.1-0.5-0.1-0.7c0-0.2,0-0.6,0-0.8c0,0,0,0,0,0c-0.2,0.1-0.3,0.2-0.4,0.2
		c0,0.1-0.2,0-0.2,0.1c-0.1,0.1-0.1,0-0.2,0c-0.1,0-0.1,0.1-0.1,0.1c0,0.1-0.1,0-0.2,0c0,0-0.2,0-0.3,0c-0.1,0,0-0.1-0.1-0.1
		c-0.1,0-0.1,0-0.2,0c0,0-0.1,0-0.2,0c0,0,0,0.1,0,0.1c-0.1,0.2,0.1,0.5,0.1,0.7c0.1,0.1,0.2,0.1,0.2,0.2c0.1,0.1,0,0.1,0,0.3
		c0,0.2-0.1,0.1-0.2,0.2c-0.1,0.1,0,0.3,0,0.3c0,0-0.3-0.3-0.3-0.4c0-0.1,0.1-0.3,0.1-0.4c0-0.1-0.2,0-0.3,0c-0.1,0-0.2-0.2-0.2-0.2
		c0,0-0.9,0.3-0.9,0.3l0.1,0.2l0,0l0,0.1c0,0,0.3,0,0.4,0.1c0.1,0.1,0.3,0.1,0.4,0.1c0,0,0,0.4,0,0.5c0,0.2-0.2,0.2-0.1,0.3
		c0.1,0.1,0,0.2,0.1,0.3c0.1,0-0.1,0.2-0.2,0.3c-0.1,0,0,0.2-0.1,0.3c-0.1,0.1-0.2,0.2-0.3,0.3c0,0,0,0,0,0c0,0.1,0.1,0.6,0.2,0.6
		c0.1,0.1,0,0.6,0,0.6c0,0,0,0.4,0,0.4s0.1,0,0.2,0c0-0.1,0-0.1,0-0.2c0-0.2-0.1,0-0.1-0.1c0-0.1,0.2-0.3,0.5-0.4
		c0.3-0.1,0.4-0.2,0.4-0.3c0-0.1,0-0.4,0-0.5c0-0.1,0-0.2-0.1-0.4c0-0.2-0.1-0.3-0.2-0.4c0-0.1,0-0.2,0.1-0.3c0.1,0,0.1,0,0.2-0.2
		c0.1-0.1,0.1-0.1,0.3-0.2c0.1-0.1,0.1-0.2,0.4-0.4c0.2-0.2,0.4-0.2,0.7-0.3C18.8,19.5,19.2,19,19.2,18.9z"/>
	<path fill="#66C8ED" d="M18.8,17.1c0-0.2-0.1-0.2-0.1-0.3c0-0.1,0-0.3,0-0.3c0,0,0-0.1,0.1-0.3c0.1-0.1-0.1-0.1-0.2-0.3
		c0-0.1,0.1-0.3,0.1-0.5c-0.3-0.2-0.6-0.4-0.6-0.4l0-0.2l-1.3-0.7c0,0.2-0.1,0.3-0.2,0.3c-0.1,0,0.1,0.2,0,0.2c-0.1,0-0.4-0.1-0.5,0
		c-0.1,0-0.1-0.2,0-0.5l-0.3,0c0,0-0.1,0-0.2,0l0.1,0.1c0,0,0.1,0.1,0.1,0.2c0,0-0.1,0.1-0.1,0.1c0,0.1,0,0.2,0,0.2l0.1,0.1
		c0,0-0.2,0.4-0.3,0.4c0,0-0.1,0-0.1,0.1c0.1,0.3,0.1,0.6,0.2,0.6c0.2,0.2,0.1,0.3,0.2,0.4c0,0.1,0.2,0.2,0.1,0.3
		c-0.1,0-0.1,0-0.2-0.1c0,0,0,0,0,0.1c0,0,0,0,0,0c0.1,0.1,0.2,0.1,0.2,0.1c0.1,0,0.2,0.1,0.3,0.1c0.1,0,0.4,0.1,0.4,0.2
		c0,0,0,0,0,0c0.1,0,0.2,0,0.2,0c0,0,0,0,0,0c0.1,0,0.2,0.4,0.2,0.7c0.1,0,0.2,0,0.2,0c0,0,0.1-0.1,0.2,0c0.1,0,0,0.1,0.1,0.1
		c0.1,0,0.2,0,0.3,0c0,0,0.2,0,0.2,0c0-0.1,0-0.1,0.1-0.1c0.1,0,0.1,0.1,0.2,0c0.1-0.1,0.2,0,0.2-0.1c0,0,0.2-0.1,0.4-0.2
		C19,17.2,18.8,17.3,18.8,17.1z"/>
	<path fill="#66C8ED" d="M17.5,18.8c0-0.1-0.1-0.1-0.2-0.2c0,0,0,0,0,0.1c-0.1,0.1-0.3-0.3-0.4-0.5c0-0.2,0.1-0.4,0-0.6
		c-0.1-0.2-0.1-0.4-0.1-0.4c-0.1,0-0.2,0-0.2,0c0.1,0.1,0.1,0.3,0.1,0.3c0,0.1-0.1,0-0.1,0.1c0,0.1-0.1,0.5,0,0.5
		c0.1,0.1-0.1,0-0.1,0.1c0,0.1,0,0.3-0.1,0.3c0,0,0,0.1,0.1,0.1c0,0,0,0,0,0c0,0,0.2,0.2,0.2,0.2c0.1,0,0.2-0.1,0.3,0
		c0,0.1-0.1,0.4-0.1,0.4c0,0.1,0.3,0.5,0.3,0.4c0,0-0.1-0.2,0-0.3c0.1-0.1,0.2,0,0.2-0.2C17.5,18.9,17.6,18.9,17.5,18.8z"/>
</g>
</svg>
