<?xml version="1.0" encoding="utf-8"?>
<!-- Generator: Adobe Illustrator 20.1.0, SVG Export Plug-In . SVG Version: 6.00 Build 0)  -->
<!DOCTYPE svg PUBLIC "-//W3C//DTD SVG 1.1//EN" "http://www.w3.org/Graphics/SVG/1.1/DTD/svg11.dtd">
<svg version="1.1" id="Layer_2" xmlns="http://www.w3.org/2000/svg" xmlns:xlink="http://www.w3.org/1999/xlink" x="0px" y="0px"
	 viewBox="0 0 19 19" style="enable-background:new 0 0 19 19;" xml:space="preserve">
<style type="text/css">
	.st0{opacity:0.6;fill:#FFFFFF;}
	.st1{display:none;fill:#FFFFFF;}
	.st2{opacity:0.3;fill:#FFFFFF;}
	.st3{fill:#FFFFFF;}
</style>
<g>
	<path class="st0" d="M14.2,5.8c0.6,0.8,1.1,1.8,1.2,2.9c0.3,3.1-2,5.9-5.1,6.1c-1.1,0.1-2.1-0.1-3-0.6l-3.5,0.9l0,0l3.6-0.6
		c0.9,0.5,1.9,0.9,3,0.9c3.1,0,5.6-2.5,5.6-5.6C16,8.2,15.3,6.8,14.2,5.8z"/>
	<path class="st0" d="M4.2,9.7c-0.3-3.1,2-5.9,5.1-6.1c1.5-0.1,2.9,0.3,4,1.2C11.9,3.4,10,2.6,7.9,3.1c-3,0.6-5,3.6-4.4,6.7
		c0.2,0.8,0.5,1.5,0.9,2.1l-0.8,3.2L4.9,12C4.5,11.3,4.2,10.6,4.2,9.7z"/>
	<path class="st1" d="M14.2,5.8c-0.3-0.4-0.6-0.7-1-1c0.1,0.2,0.3,0.3,0.4,0.5C13.9,5.4,14,5.6,14.2,5.8z"/>
	<path class="st2" d="M10.3,14.8c3.1-0.3,5.4-3.1,5.1-6.1c-0.1-1.1-0.5-2.1-1.2-2.9c-0.2-0.2-0.4-0.3-0.6-0.5
		c0.4,0.6,0.8,1.3,0.9,2.1c0.6,3-1.3,6-4.4,6.7c-1.1,0.2-2.1,0.1-3.1-0.2l-3.4,1.3l0,0l3.5-0.9C8.2,14.7,9.2,14.9,10.3,14.8z"/>
	<path class="st2" d="M3.7,15.2l1.4-3.1c-0.3-0.7-0.5-1.5-0.5-2.3c0-3.1,2.5-5.6,5.6-5.6c1.3,0,2.4,0.4,3.3,1.1
		c-0.1-0.2-0.3-0.4-0.4-0.5c-1.1-0.9-2.5-1.3-4-1.2C6.1,3.9,3.9,6.7,4.2,9.7c0.1,0.8,0.3,1.6,0.7,2.2L3.7,15.2L3.7,15.2L3.7,15.2z"
		/>
	<g>
		<path class="st3" d="M18.8,9.3c0-5.1-4.2-9.3-9.3-9.3C4.4,0,0.3,4.1,0.2,9.2l0,0v9.5h9.4l0,0C14.7,18.6,18.8,14.4,18.8,9.3z
			 M10.3,15.5c-1.1,0-2.1-0.3-3-0.9l-3.6,0.6l0,0l0,0l0,0l0-0.1l0.8-3.2c-0.4-0.6-0.8-1.3-0.9-2.1c-0.6-3,1.3-6,4.4-6.7
			c2-0.4,4,0.3,5.3,1.7c0.1,0.2,0.3,0.3,0.4,0.5c0.2,0.1,0.4,0.3,0.6,0.5c1.1,1,1.7,2.5,1.7,4.1C16,12.9,13.4,15.5,10.3,15.5z"/>
	</g>
</g>
</svg>
