<?xml version="1.0" encoding="utf-8"?>
<!-- Generator: Adobe Illustrator 20.1.0, SVG Export Plug-In . SVG Version: 6.00 Build 0)  -->
<!DOCTYPE svg PUBLIC "-//W3C//DTD SVG 1.1//EN" "http://www.w3.org/Graphics/SVG/1.1/DTD/svg11.dtd">
<svg version="1.1" id="Layer_2" xmlns="http://www.w3.org/2000/svg" xmlns:xlink="http://www.w3.org/1999/xlink" x="0px" y="0px"
	 viewBox="0 0 19 19" style="enable-background:new 0 0 19 19;" xml:space="preserve">
<style type="text/css">
	.st0{fill:#FFFFFF;}
</style>
<path class="st0" d="M9.5,0.2c-5.1,0-9.3,4.2-9.3,9.3c0,5.1,4.2,9.3,9.3,9.3c5.1,0,9.3-4.2,9.3-9.3C18.8,4.4,14.6,0.2,9.5,0.2z
	 M5.1,9.3C4.4,9.3,3.9,8.6,4,7.9c0.1-0.7,0.7-1.2,1.4-1.1c0.7,0.1,1.2,0.7,1.1,1.4C6.5,8.9,5.8,9.4,5.1,9.3z M7.6,9.5
	C7.6,8.8,8.3,8.3,9,8.4s1.2,0.7,1.1,1.4C10,10.5,9.4,11,8.7,10.9C8,10.8,7.5,10.2,7.6,9.5z M8.9,14.8c-0.5-0.1-0.9-0.5-0.8-1.1
	c0.1-0.5,0.5-0.9,1.1-0.8c0.5,0.1,0.9,0.5,0.8,1.1C9.9,14.5,9.5,14.8,8.9,14.8z M10.5,6C10,5.9,9.6,5.5,9.6,4.9
	c0.1-0.5,0.5-0.9,1.1-0.8c0.5,0.1,0.9,0.5,0.8,1.1C11.5,5.7,11,6.1,10.5,6z M12.6,13.5c-0.5-0.1-0.8-0.5-0.8-1
	c0.1-0.5,0.5-0.8,1-0.8c0.5,0.1,0.8,0.5,0.8,1C13.5,13.2,13.1,13.5,12.6,13.5z M11.8,8.4c0.1-0.7,0.7-1.2,1.4-1.1
	c0.7,0.1,1.2,0.7,1.1,1.4c-0.1,0.7-0.7,1.2-1.4,1.1C12.2,9.7,11.7,9.1,11.8,8.4z"/>
</svg>
